<svg width="848" height="393" viewBox="0 0 848 393" fill="none" xmlns="http://www.w3.org/2000/svg">
<path d="M0.00585938 193.885C0.00585938 166.704 5.13281 141.395 15.3867 117.957C25.6406 94.3568 40.4518 73.9303 59.8203 56.6777C79.3516 39.2624 103.115 25.5905 131.109 15.6621C159.267 5.73372 191.087 0.769531 226.568 0.769531C257.656 0.769531 286.139 3.94336 312.018 10.291C338.059 16.4759 362.229 25.9974 384.527 38.8555L348.883 97.4492C342.21 93.0547 334.479 89.1484 325.689 85.7305C317.063 82.3125 307.786 79.4642 297.857 77.1855C288.092 74.7441 277.919 72.8724 267.34 71.5703C256.923 70.2682 246.588 69.6172 236.334 69.6172C211.594 69.6172 189.54 72.7096 170.172 78.8945C150.803 84.9167 134.446 93.4616 121.1 104.529C107.916 115.434 97.8249 128.536 90.8262 143.836C83.9902 158.973 80.5723 175.656 80.5723 193.885C80.5723 212.765 84.153 230.099 91.3145 245.887C98.4759 261.674 108.811 275.346 122.32 286.902C135.992 298.296 152.594 307.247 172.125 313.758C191.819 320.105 214.036 323.279 238.775 323.279C250.006 323.279 261.155 322.465 272.223 320.838C283.29 319.21 293.951 317.013 304.205 314.246C314.622 311.316 324.632 307.898 334.234 303.992C343.837 299.923 352.789 295.529 361.09 290.809L396.734 349.402C375.901 362.749 351.812 373.247 324.469 380.896C297.125 388.383 268.072 392.127 237.311 392.127C198.085 392.127 163.661 387.081 134.039 376.99C104.417 366.736 79.6771 352.739 59.8203 334.998C39.9635 317.094 24.9896 296.098 14.8984 272.01C4.97005 247.758 0.00585938 221.717 0.00585938 193.885ZM482.184 5.4082H676.275C705.572 5.4082 730.963 8.50065 752.447 14.6855C773.932 20.7077 791.754 29.4967 805.914 41.0527C820.074 52.6087 830.572 66.6875 837.408 83.2891C844.407 99.8906 847.906 118.689 847.906 139.686C847.906 153.846 846.197 167.355 842.779 180.213C839.361 192.908 834.072 204.627 826.91 215.369C819.911 226.111 811.041 235.714 800.299 244.178C789.557 252.479 776.943 259.396 762.457 264.93L845.465 387H750.738L678.961 278.602H676.764L559.576 278.357V387H482.184V5.4082ZM678.229 211.463C692.877 211.463 705.654 209.754 716.559 206.336C727.626 202.918 736.822 198.117 744.146 191.932C751.633 185.747 757.167 178.26 760.748 169.471C764.492 160.519 766.363 150.59 766.363 139.686C766.363 118.364 759.039 101.925 744.391 90.3691C729.742 78.6504 707.688 72.791 678.229 72.791H559.576V211.463H678.229Z" fill="white"/>
</svg>
